<?xml version="1.0" encoding="UTF-8" standalone="no"?>
<svg xmlns:inkscape="http://www.inkscape.org/namespaces/inkscape" xmlns:sodipodi="http://sodipodi.sourceforge.net/DTD/sodipodi-0.dtd" xmlns="http://www.w3.org/2000/svg" xmlns:svg="http://www.w3.org/2000/svg" xmlns:rdf="http://www.w3.org/1999/02/22-rdf-syntax-ns#" xmlns:cc="http://creativecommons.org/ns#" xmlns:dc="http://purl.org/dc/elements/1.1/" viewBox="0 0 1000 500" aria-labelledby="title" aria-describedby="desc" role="img" version="1.1" id="svg10" sodipodi:docname="zapier-reverse.svg" inkscape:version="1.3 (0e150ed6c4, 2023-07-21)" width="1000" height="500">
  <metadata id="metadata16"></metadata>
  <defs id="defs14"></defs>
  <title id="title2">Ticket</title>
  <desc id="desc4">A line styled icon from Orion Icon Library.</desc>
  <rect style="opacity:1;fill:#ffffff;fill-opacity:1;fill-rule:evenodd;stroke:none;stroke-width:1.99937022;stroke-linecap:square;stroke-linejoin:miter;stroke-miterlimit:10;stroke-dasharray:none;stroke-dashoffset:0;stroke-opacity:1;paint-order:normal" id="rect4658" width="1000" height="500" x="0" y="-5.9999998e-008" inkscape:export-xdpi="96" inkscape:export-ydpi="96"></rect>
  <g id="g4610" transform="matrix(7.3781627,0,0,7.3781627,137.9422,-100.12763)" style="stroke-width:0.13553509" inkscape:export-xdpi="96" inkscape:export-ydpi="96"></g>
  <path id="path848" d="m 568.04926,229.84325 h -16.94674 c -0.3454,-1.38643 -0.611,-2.99616 -0.78102,-4.8239 a 55.30601,55.30601 0 0 1 0,-10.68863 c 0.17263,-1.8223 0.43297,-3.42668 0.78102,-4.8264 h 42.24236 v 133.76129 a 63.131349,63.131349 0 0 1 -6.38834,0.77812 88.551766,88.551766 0 0 1 -6.39091,0.25769 85.584717,85.584717 0 0 1 -6.12272,-0.25769 62.942764,62.942764 0 0 1 -6.38562,-0.78073 V 229.84062 Z m 147.05082,33.63901 c 0,-4.86908 -0.65353,-9.51738 -1.95246,-13.95351 -1.2989,-4.43597 -3.22202,-8.2955 -5.73748,-11.59981 -2.51546,-3.30449 -5.73762,-5.95016 -9.65015,-7.95013 -3.91278,-2.0002 -8.56119,-3.00163 -13.95064,-3.00163 -10.60385,0 -18.72679,3.21926 -24.37929,9.65024 -5.65242,6.43063 -9.08447,15.37971 -10.29826,26.85484 z m -66.22861,19.29218 c 0.34536,14.60145 4.12776,25.29291 11.34227,32.06919 7.21436,6.7762 17.86056,10.17354 31.93875,10.17354 12.33843,0 24.07103,-2.17821 35.19553,-6.52115 1.38654,2.60835 2.51548,5.78005 3.38671,9.51743 a 62.058223,62.058223 0 0 1 1.56455,11.07921 c -5.73239,2.44364 -12.03808,4.25785 -18.89922,5.47701 -6.86116,1.2193 -14.47667,1.82505 -22.81213,1.82505 -12.17098,0 -22.57819,-1.70006 -31.29065,-5.08691 -8.71257,-3.38681 -15.86313,-8.17315 -21.51571,-14.34383 -5.65247,-6.17037 -9.77496,-13.46722 -12.38608,-21.90358 -2.61119,-8.43615 -3.9128,-17.68522 -3.9128,-27.76836 0,-9.90787 1.25911,-19.1649 3.78002,-27.77133 2.52078,-8.60617 6.39091,-16.0755 11.5997,-22.41869 5.20902,-6.34338 11.77775,-11.38748 19.68828,-15.12214 7.91032,-3.73487 17.24695,-5.60461 28.02883,-5.60461 9.2118,0 17.29221,1.59356 24.25172,4.69362 6.95936,3.0997 12.77643,7.43205 17.47011,12.90945 4.69365,5.47703 8.25575,11.9954 10.6889,19.54986 2.43294,7.55441 3.65219,15.77825 3.65219,24.64502 0,2.43291 -0.0934,4.99354 -0.2656,7.68983 a 262.04253,262.04253 0 0 1 -0.52045,6.90874 l -90.99551,0.005 z m 120.21179,-73.27012 a 72.869208,72.869208 0 0 1 5.47456,-0.78122 56.206472,56.206472 0 0 1 5.47458,-0.25737 c 1.91243,0 3.82495,0.0877 5.73736,0.25737 1.91261,0.17032 3.64981,0.43854 5.21696,0.78122 0.51784,2.60832 1.03589,6.04565 1.55925,10.29813 0.52315,4.2528 0.78617,7.86272 0.78617,10.82169 3.64972,-5.90737 8.50005,-11.03956 14.46866,-15.38502 5.9687,-4.34576 13.68768,-6.51869 23.07476,-6.51869 1.38951,0 2.82386,0.0445 4.30344,0.13422 a 38.675157,38.675157 0 0 1 3.77978,0.3879 42.340785,42.340785 0 0 1 0.7835,4.95667 c 0.17278,1.73706 0.25772,3.55932 0.25772,5.47163 0,2.08787 -0.1339,4.26335 -0.38777,6.51863 a 135.05492,135.05492 0 0 1 -0.91118,6.51837 17.964277,17.964277 0 0 0 -4.30305,-0.52057 h -3.52244 c -4.69085,0 -9.16926,0.65344 -13.42715,1.95501 -4.25807,1.30148 -8.08307,3.61246 -11.47508,6.90641 -3.39213,3.29364 -6.10948,7.82535 -8.07518,13.56275 -1.96552,5.73768 -3.00148,13.12185 -3.00148,22.16118 v 66.49166 a 63.404956,63.404956 0 0 1 -6.38837,0.78076 c -2.34269,0.1754 -4.47309,0.25766 -6.3857,0.25766 a 87.73363,87.73363 0 0 1 -6.38827,-0.25766 76.024842,76.024842 0 0 1 -6.65107,-0.77817 z m -182.99251,-71.4215 a 25.914476,25.914476 0 0 1 -1.66283,9.13754 25.949018,25.949018 0 0 1 -9.14015,1.6652 h -0.0366 a 25.922462,25.922462 0 0 1 -9.14016,-1.66254 25.887924,25.887924 0 0 1 -1.66562,-9.1402 v -0.0392 c 0,-3.21397 0.58979,-6.29557 1.66037,-9.13749 a 25.864003,25.864003 0 0 1 9.14276,-1.66305 h 0.0341 a 25.81883,25.81883 0 0 1 9.14013,1.66305 25.871974,25.871974 0 0 1 1.66278,9.14003 v 0.0392 h 0.005 z m 31.85915,-7.23587 h -25.26102 l 17.8633,-17.86328 a 43.459087,43.459087 0 0 0 -10.20271,-10.20008 l -17.866,17.8633 V 95.383468 a 43.4883,43.4883 0 0 0 -7.18781,-0.602958 h -0.0445 c -2.45176,0 -4.85034,0.212444 -7.19062,0.602958 v 25.266112 l -17.86856,-17.86599 a 43.220009,43.220009 0 0 0 -5.52252,4.67237 l -0.008,0.008 a 43.554718,43.554718 0 0 0 -4.66956,5.52257 l 17.86847,17.86332 h -25.26864 c 0,0 -0.60043,4.74675 -0.60043,7.19829 v 0.0263 c 0,2.45453 0.20723,4.86123 0.6031,7.17216 h 25.26884 l -17.87081,17.86071 a 43.589247,43.589247 0 0 0 10.20537,10.20266 l 17.86588,-17.86329 v 25.26619 c 2.33755,0.39043 4.7335,0.5976 7.17997,0.60018 h 0.0602 a 43.668914,43.668914 0 0 0 7.17973,-0.60018 v -25.23759 l 17.86867,17.86599 a 43.618457,43.618457 0 0 0 5.52505,-4.67236 h 0.005 a 43.703453,43.703453 0 0 0 4.66688,-5.52508 l -17.8633,-17.86823 h 25.26905 c 0.39049,-2.33719 0.59773,-4.73585 0.59773,-7.1822 v -0.0629 c 0,-2.40693 -0.20194,-4.7815 -0.59773,-7.18003 z M 160,339.61837 230.39888,230.10097 h -62.05837 c -0.52046,-3.129 -0.7781,-6.60077 -0.7781,-10.42872 0,-3.64941 0.26559,-7.03882 0.78341,-10.17328 h 100.38009 l 1.30709,3.39481 -70.92215,109.76988 h 66.48596 a 72.037777,72.037777 0 0 1 0.78379,10.68598 c 0,3.47971 -0.26043,6.78161 -0.78111,9.90803 H 161.30691 L 160,339.6158 Z m 203.1134,-59.16551 c -2.6083,-0.34528 -5.90994,-0.69055 -9.90766,-1.04106 -3.99773,-0.35066 -7.38447,-0.52073 -10.16559,-0.52073 -10.77896,0 -18.99216,2.00024 -24.63673,5.99782 -5.64457,3.99757 -8.50002,10.08066 -8.50002,18.2486 0,5.21419 0.95097,9.29684 2.86863,12.2532 1.91771,2.95644 4.30306,5.21441 7.17213,6.77888 2.86863,1.56452 6.03737,2.52341 9.5091,2.86886 3.47191,0.34519 6.77889,0.52051 9.9079,0.52051 a 121.86923,121.86923 0 0 0 12.38613,-0.65333 c 4.25809,-0.43031 8.03802,-1.08906 11.34233,-1.95525 v -42.50012 z m 0,-25.28763 c 0,-10.26103 -2.6083,-17.38494 -7.82007,-21.38264 -5.21124,-3.99789 -12.74987,-5.99784 -22.68425,-5.99784 -6.08835,0 -11.77774,0.47812 -17.07964,1.43425 a 130.66145,130.66145 0 0 0 -15.51807,3.77708 c -3.30424,-5.73735 -4.95112,-12.59862 -4.95112,-20.59929 5.90214,-1.91244 12.42043,-3.38648 19.54994,-4.4305 7.12943,-1.04382 13.99063,-1.59371 20.59932,-1.59371 17.38011,0 30.59212,3.98418 39.63153,11.8653 9.03919,7.88127 13.55994,20.55972 13.55994,37.93943 v 83.67233 c -6.08783,1.38911 -13.47242,2.82346 -22.16388,4.3031 a 158.81783,158.81783 0 0 1 -26.59441,2.21814 c -8.51581,0 -16.21096,-0.77851 -23.07474,-2.34565 -6.86381,-1.56727 -12.69184,-4.08271 -17.4703,-7.56485 a 35.036078,35.036078 0 0 1 -11.08459,-13.29494 c -2.60298,-5.39205 -3.90988,-11.90789 -3.90988,-19.5578 0,-7.47207 1.51941,-14.03587 4.56345,-19.68828 a 41.116252,41.116252 0 0 1 12.38613,-14.07822 c 5.21417,-3.73207 11.20946,-6.51853 17.99063,-8.34053 6.78152,-1.82217 13.90574,-2.74138 21.38318,-2.74138 5.56218,0 10.12567,0.13423 13.69022,0.39318 3.56487,0.26032 6.56116,0.56308 8.99394,0.91101 v -4.92461 z m 79.26301,66.22066 a 51.164906,51.164906 0 0 0 10.17092,2.60857 c 3.47965,0.52313 7.99519,0.78347 13.5601,0.78347 6.25548,0 11.99024,-0.99611 17.20463,-2.99626 a 34.159517,34.159517 0 0 0 13.43006,-9.25693 c 3.73736,-4.17037 6.6937,-9.42459 8.86381,-15.77817 2.17026,-6.35397 3.26198,-13.85531 3.26198,-22.57832 0,-13.90562 -2.5686,-24.96872 -7.69248,-33.11287 -5.12409,-8.14428 -13.52049,-12.25331 -25.16007,-12.25331 -4.34571,0 -8.52149,0.78079 -12.48452,2.34793 -3.96313,1.56726 -7.56497,3.91292 -10.69406,7.03933 -3.12909,3.12644 -5.64723,7.08685 -7.55968,11.86537 -1.91245,4.77859 -2.86875,10.47093 -2.86875,17.0797 v 54.22498 z M 416.56282,209.53074 c 1.76907,-0.3453 3.54892,-0.61092 5.34445,-0.78082 a 60.751341,60.751341 0 0 1 5.60737,-0.25764 c 1.73185,0 3.55939,0.0902 5.47185,0.25764 1.91248,0.16726 3.73482,0.43817 5.47183,0.78082 0.17002,0.35329 0.39041,1.43425 0.65351,3.26189 l 0.78107,5.86513 0.7808,5.99785 c 0.26036,1.91251 0.39059,3.13439 0.39059,3.65222 1.73435,-2.77828 3.82487,-5.47172 6.25548,-8.08287 2.43046,-2.61132 5.34955,-4.9539 8.76566,-7.03916 3.41586,-2.08532 7.2117,-3.73742 11.47483,-4.95673 4.26332,-1.21912 8.99428,-1.83275 14.21102,-1.83275 7.82004,0 15.07969,1.3068 21.7736,3.91554 a 43.562684,43.562684 0 0 1 17.20461,12.12299 c 4.78109,5.47733 8.51321,12.43144 11.20925,20.85974 2.69619,8.42833 4.0375,18.38652 4.0375,29.85641 0,22.94463 -6.21566,40.8956 -18.64675,53.84237 -12.43141,12.9465 -30.02654,19.42246 -52.79604,19.42246 a 90.764419,90.764419 0 0 1 -11.73254,-0.78084 c -4.00038,-0.52342 -7.47475,-1.22192 -10.43133,-2.0853 v 61.27465 a 75.767186,75.767186 0 0 1 -6.64577,0.78106 c -2.3483,0.16987 -4.48112,0.2576 -6.39101,0.2576 a 88.469425,88.469425 0 0 1 -6.38557,-0.2576 62.982612,62.982612 0 0 1 -6.38568,-0.78106 v -195.2936 z" inkscape:connector-curvature="0" style="clip-rule:evenodd;fill:#ff4a00;fill-opacity:1;fill-rule:evenodd;stroke-width:0.99999887;stroke-linejoin:round;stroke-miterlimit:1.41420996" inkscape:export-xdpi="96" inkscape:export-ydpi="96"></path>
</svg>
